# xmcd
#
# Track frame offsets:
#        150
#        27935
#        56540
#        71642
#        89877
#        129435
#        163005
#        179002
#        205655
#        231842
#        280800
#        320995
#
# Disc length: 4648 seconds
#
# Revision: 1
# Processed by: cddbd v1.5.1PL2 Copyright (c) Steve Scherf et al.
# Submitted via: ExactAudioCopy v0.95b4
#
DISCID=b612260c
DTITLE=English Chamber Orchestra - Mozart
DYEAR=1991
DGENRE=Classical
TTITLE0=Symphony 35 - Allegro con spirito
TTITLE1=Symphony 35 - Adante
TTITLE2=Symphony 35 - Menuetto
TTITLE3=Symphony 35 - Presto
TTITLE4=Symphony 36 - Adagio;Allegro spiritoso
TTITLE5=Symphony 36 - Adante
TTITLE6=Symphony 36 - Menuetto
TTITLE7=Symphony 36 - Presto
TTITLE8=Symphony 37 - Adagio maestoso;Allegro con spirito
TTITLE9=Symphony 38 - Adagio;Allegro
TTITLE10=Symphony 38 - Adante
TTITLE11=Symphony 38 - Finale:Presto
EXTD=
EXTT0=
EXTT1=
EXTT2=
EXTT3=
EXTT4=
EXTT5=
EXTT6=
EXTT7=
EXTT8=
EXTT9=
EXTT10=
EXTT11=
PLAYORDER=
